<svg width="24" height="24" viewBox="0 0 24 24" fill="none" xmlns="http://www.w3.org/2000/svg">
<path d="M8 16.0005L10.879 13.1215M10.879 13.1215C11.1567 13.4038 11.4876 13.6284 11.8525 13.7822C12.2174 13.936 12.6092 14.0161 13.0052 14.0177C13.4012 14.0194 13.7936 13.9426 14.1598 13.7919C14.5261 13.6411 14.8588 13.4193 15.1388 13.1393C15.4189 12.8593 15.6408 12.5267 15.7916 12.1605C15.9425 11.7943 16.0193 11.4019 16.0177 11.0059C16.0162 10.6099 15.9362 10.2181 15.7825 9.85313C15.6287 9.48817 15.4043 9.15726 15.122 8.87949C14.5579 8.32438 13.7973 8.01466 13.0059 8.01779C12.2145 8.02092 11.4564 8.33664 10.8967 8.89619C10.337 9.45574 10.0211 10.2138 10.0178 11.0052C10.0145 11.7966 10.324 12.5573 10.879 13.1215ZM21 12.0005C21 13.1824 20.7672 14.3527 20.3149 15.4446C19.8626 16.5366 19.1997 17.5287 18.364 18.3644C17.5282 19.2002 16.5361 19.8631 15.4441 20.3154C14.3522 20.7677 13.1819 21.0005 12 21.0005C10.8181 21.0005 9.64778 20.7677 8.55585 20.3154C7.46392 19.8631 6.47177 19.2002 5.63604 18.3644C4.80031 17.5287 4.13738 16.5366 3.68508 15.4446C3.23279 14.3527 3 13.1824 3 12.0005C3 9.61354 3.94821 7.32435 5.63604 5.63653C7.32387 3.9487 9.61305 3.00049 12 3.00049C14.3869 3.00049 16.6761 3.9487 18.364 5.63653C20.0518 7.32435 21 9.61354 21 12.0005Z" stroke="#525559" stroke-width="2.04493" stroke-linecap="round" stroke-linejoin="round"/>
</svg>
